<svg xmlns="http://www.w3.org/2000/svg" xml:space="preserve" width="632.477" height="317.38" style="shape-rendering:geometricPrecision;text-rendering:geometricPrecision;image-rendering:optimizeQuality;fill-rule:evenodd;clip-rule:evenodd" viewBox="0 0 58.224 29.217">
<defs>
  <style>.fil1{fill:#fff}</style>
</defs>
<path id="Background_x0020_Color_x0020__x0028_SVG_x0029_" d="M5.521 29.217h47.181a5.52 5.52 0 0 0 5.522-5.521V5.52A5.52 5.52 0 0 0 52.702 0H5.522A5.52 5.52 0 0 0 0 5.521v18.175a5.52 5.52 0 0 0 5.521 5.52" style="fill:#5e289f" />
<g id="Text_x0020_White_x0020__x0028_SVG_x0029_">
  <path d="m8.285 11.544-.721 9.094h3.508l.248-3.136zM17.093 8.579c-1.022 0-1.954.622-2.405 1.508l-.737 1.446-1.506-2.954H8.52l5.43 10.66 3.355-6.584-.632 7.983h3.507l.956-12.06zM24.312 11.544l-.721 9.094h3.508l.248-3.136zM33.12 8.579c-1.022 0-1.954.622-2.405 1.508l-.737 1.446-1.506-2.954h-3.926l5.432 10.66 3.354-6.584-.633 7.983h3.508l.956-12.06zM41.363 15.383l1.96 3.855-.713 1.4h-3.92zM41.009 8.579h2.557l6.144 12.06h-3.925L40.338 9.947c-.386-.756-.085-1.37.67-1.37M47.987 13.834l-1.96-3.855.713-1.4h3.92zM41.677 22.194h1.62l-.2 2.523h-1.62zM44.852 22.194h1.62l-.2 2.523h-1.62zM43.08 4.5h1.618l-.2 2.523H42.88zM46.254 4.5h1.62l-.2 2.523h-1.62z" class="fil1" />
</g>
</svg>
