<svg xmlns="http://www.w3.org/2000/svg" xml:space="preserve" width="632.477" height="385.417" style="shape-rendering:geometricPrecision;text-rendering:geometricPrecision;image-rendering:optimizeQuality;fill-rule:evenodd;clip-rule:evenodd" viewBox="0 0 58.224 35.48">
<defs>
  <style>.fil1{fill:#fff}</style>
</defs>
<path id="Background_x0020_Color_x0020__x0028_SVG_x0029_" d="M0 0h58.224v35.48H0z" style="fill:#5e289f" />
<g id="Text_x0020_White_x0020__x0028_SVG_x0029_">
  <path d="m8.285 14.675-.721 9.095h3.508l.248-3.137zM17.093 11.71c-1.022 0-1.954.622-2.405 1.509l-.737 1.446-1.506-2.955H8.52l5.43 10.66 3.355-6.583-.632 7.983h3.507l.956-12.06zM24.312 14.675l-.721 9.095h3.508l.248-3.137zM33.12 11.71c-1.022 0-1.954.622-2.405 1.509l-.737 1.446-1.506-2.955h-3.926l5.432 10.66 3.354-6.583-.633 7.983h3.508l.956-12.06zM41.363 18.515l1.96 3.855-.713 1.4h-3.92zM41.009 11.71h2.557l6.144 12.06h-3.925l-5.447-10.69c-.386-.757-.085-1.37.67-1.37M47.987 16.966l-1.96-3.856.713-1.4h3.92zM41.677 25.325h1.62l-.2 2.524h-1.62zM44.852 25.325h1.62l-.2 2.524h-1.62zM43.08 7.631h1.618l-.2 2.524H42.88zM46.254 7.631h1.62l-.2 2.524h-1.62z" class="fil1" />
</g>
</svg>
