<?xml version="1.0" encoding="UTF-8"?>
<!DOCTYPE svg PUBLIC "-//W3C//DTD SVG 1.1//EN" "http://www.w3.org/Graphics/SVG/1.1/DTD/svg11.dtd">
<!-- Creator: Corel DESIGNER -->
<svg xmlns="http://www.w3.org/2000/svg" xml:space="preserve" width="476.743mm" height="176.726mm" style="shape-rendering:geometricPrecision; text-rendering:geometricPrecision; image-rendering:optimizeQuality; fill-rule:evenodd; clip-rule:evenodd"
viewBox="0 0 486.964 180.515"
 xmlns:xlink="http://www.w3.org/1999/xlink">
 <defs>
  <style type="text/css">
   <![CDATA[
    .str0 {stroke:black;stroke-width:0.0778337}
    .fil0 {fill:none}
   ]]>
  </style>
 </defs>
 <g id="Logo_x0020_RAW_x0020__x0028_SVG_x0029_">
  <metadata id="CorelCorpID_0Corel-Layer"/>
  <circle class="fil0 str0" cx="90.2576" cy="90.2576" r="90.2186"/>
  <polygon class="fil0 str0" points="68.6064,95.3202 81.4212,120.522 76.7584,129.673 51.1377,129.673 "/>
  <path class="fil0 str0" d="M66.2915 50.8419l16.7138 -0.000102144 40.1665 78.8312 -25.6622 0.000102144 -35.6071 -69.8828c-2.51764,-4.94131 -0.552292,-8.94842 4.38902,-8.94842z"/>
  <polygon class="fil0 str0" points="111.909,85.1951 99.0946,59.9943 103.758,50.8419 129.377,50.8419 "/>
  <polygon class="fil0 str0" points="70.659,139.842 81.2438,139.842 79.9366,156.336 69.3519,156.337 "/>
  <polygon class="fil0 str0" points="91.4129,139.842 101.998,139.842 100.691,156.336 90.1059,156.337 "/>
  <polygon class="fil0 str0" points="79.8247,24.1787 90.4094,24.1788 89.1023,40.6728 78.5176,40.6731 "/>
  <polygon class="fil0 str0" points="100.578,24.1787 111.163,24.1788 109.856,40.6728 99.2714,40.6731 "/>
  <polygon class="fil0 str0" points="209.899,70.2232 205.188,129.673 228.118,129.673 229.743,109.17 "/>
  <path class="fil0 str0" d="M267.477 50.842c-6.68144,0 -12.7706,4.06696 -15.7216,9.85995l-4.81741 9.45485 -9.84136 -19.3148 -25.6623 0.000102144 35.5037 69.6798 21.9269 -43.0339 -4.13519 52.1851 22.9307 0 6.24671 -78.8312 -26.4302 0z"/>
  <polygon class="fil0 str0" points="314.665,70.2232 309.954,129.673 332.885,129.673 334.509,109.17 "/>
  <path class="fil0 str0" d="M372.243 50.842c-6.68144,0 -12.7706,4.06696 -15.7216,9.85995l-4.81741 9.45485 -9.84136 -19.3148 -25.6623 0.000102144 35.5037 69.6798 21.9269 -43.0339 -4.13519 52.1851 22.9307 0 6.24671 -78.8312 -26.4302 0z"/>
  <polygon class="fil0 str0" points="426.129,95.3203 438.944,120.522 434.281,129.673 408.661,129.673 "/>
  <path class="fil0 str0" d="M423.814 50.842l16.7138 -0.000102144 40.1665 78.8312 -25.6622 0.000102144 -35.6071 -69.8828c-2.51764,-4.94131 -0.552292,-8.94842 4.38902,-8.94842z"/>
  <polygon class="fil0 str0" points="469.432,85.1952 456.618,59.9944 461.281,50.842 486.9,50.842 "/>
  <polygon class="fil0 str0" points="428.182,139.842 438.767,139.842 437.46,156.336 426.875,156.337 "/>
  <polygon class="fil0 str0" points="448.936,139.842 459.521,139.842 458.213,156.336 447.629,156.337 "/>
  <polygon class="fil0 str0" points="437.348,24.1788 447.932,24.1789 446.625,40.6729 436.041,40.6732 "/>
  <polygon class="fil0 str0" points="458.101,24.1788 468.686,24.1789 467.379,40.6729 456.794,40.6732 "/>
 </g>
</svg>
