<svg xmlns="http://www.w3.org/2000/svg" xml:space="preserve" width="275.8mm" height="489.01" style="shape-rendering:geometricPrecision;text-rendering:geometricPrecision;image-rendering:optimizeQuality;fill-rule:evenodd;clip-rule:evenodd" viewBox="0 0 1170.7 549.202">
<defs>
  <style>.fil0{fill:#fff}</style>
</defs>
<g id="Text_x0020_White_x0020__x0028_SVG_x0029_">
  <path d="M19.578 191.345 0 438.398h95.292l6.752-85.204zM258.854 110.803c-27.766 0-53.07 16.9-65.333 40.975l-20.02 39.29-40.897-80.265H25.96L173.5 400.368l91.121-178.834-17.184 216.863h95.292l25.96-327.595zM454.949 191.345l-19.578 247.053h95.292l6.752-85.204zM694.225 110.803c-27.766 0-53.07 16.9-65.333 40.975l-20.02 39.29-40.897-80.265H461.33l147.54 289.565 91.121-178.834-17.184 216.863H778.1l25.96-327.595zM918.156 295.639l53.254 104.73-19.377 38.029h-106.47zM908.537 110.803h69.457l166.918 327.595h-106.643L890.298 147.99c-10.463-20.534-2.295-37.186 18.239-37.186zM1098.11 253.563l-53.26-104.726 19.38-38.034h106.47zM926.686 480.657h43.987l-5.432 68.544-43.986.001zM1012.93 480.657l43.99.001-5.43 68.543-43.99.001zM964.776 0h43.984l-5.43 68.544-43.986.001zM1051.02 0h43.99l-5.43 68.544-43.99.001z" class="fil0" />
</g>
</svg>
